<?xml version="1.0" encoding="utf-8"?>
<!-- Generator: Adobe Illustrator 24.2.3, SVG Export Plug-In . SVG Version: 6.00 Build 0)  -->
<svg version="1.1" id="Layer_1" xmlns="http://www.w3.org/2000/svg" xmlns:xlink="http://www.w3.org/1999/xlink" x="0px" y="0px"
	 viewBox="0 0 1400 1400" style="enable-background:new 0 0 1400 1400;" xml:space="preserve">
<style type="text/css">
	.st0{fill-rule:evenodd;clip-rule:evenodd;fill:#D0F7F0;}
	.st1{fill-rule:evenodd;clip-rule:evenodd;fill:#214516;}
	.st2{fill-rule:evenodd;clip-rule:evenodd;fill:#548036;}
	.st3{fill-rule:evenodd;clip-rule:evenodd;fill:#346016;}
	.st4{fill-rule:evenodd;clip-rule:evenodd;fill:#40711E;}
	.st5{fill-rule:evenodd;clip-rule:evenodd;fill:#2BD9CA;}
	.st6{fill-rule:evenodd;clip-rule:evenodd;fill:#A9EDE3;}
	.st7{fill:#264D20;}
	.st8{fill:#214516;}
	.st9{fill-rule:evenodd;clip-rule:evenodd;fill:#D1CABD;}
	.st10{fill-rule:evenodd;clip-rule:evenodd;fill:#E5E0D9;}
	.st11{fill-rule:evenodd;clip-rule:evenodd;fill:#215211;}
</style>
<g>
	<g>
		<circle class="st0" cx="699.4" cy="784.4" r="471.4"/>
	</g>
	<path class="st1" d="M219.3,257.2c-8,32.1,96.7,77.8,133.9,53.8c2.4-29.4-18.4-47.7-52.6-59.9C267.7,239.5,239.9,239.3,219.3,257.2
		"/>
	<path class="st2" d="M231.4,257.5c52.4,4.6,96.9,27.8,136,63.5l-3.5,2.3C326.2,289.1,282.4,266.6,231.4,257.5"/>
	<path class="st3" d="M352.6,384.2c-43.2,15.6-147.3-22.4-152.9-49.7C215,303,245.5,294,288,309.2
		C322.8,321.6,343.9,348.2,352.6,384.2"/>
	<path class="st2" d="M214.7,333.2c57.5-8,96.7,20.3,145.8,65l-1.1-9.9C306,343,256.6,318.1,214.7,333.2"/>
	<path class="st1" d="M300.6,152.8c-49.1,54.4,0.3,142,57.8,137.1c39.4-9.6,46.5-37.8,24.3-77.7
		C356.5,165.2,326.2,149.4,300.6,152.8"/>
	<path class="st3" d="M477.1,218.1c22.2,24.4-48.3,114.3-92.4,110.9c-16-24.8-6.4-50.7,18-77.6C426.1,225.5,450.5,212.1,477.1,218.1
		"/>
	<path class="st2" d="M466.6,224.1c-44,28.9-72.1,70.4-89.6,120.4l4.2,0.3C398,296.9,425.9,256.3,466.6,224.1"/>
	<path class="st1" d="M379.1,393.1c45.5,5.7,139.4-48.6,139.2-74.4c-21.5-25.5-53.3-27.8-91.6-5.8
		C395.2,330.8,380.1,358.9,379.1,393.1"/>
	<path class="st2" d="M503.3,320.5c-58,3.8-90.4,37-129,86.9l-1-9.1C416,346.9,459.2,314.9,503.3,320.5"/>
	<path class="st2" d="M310.4,173.2c49.7,92.6,56.4,139.7,58.4,285.4l13.1-4.1C376.8,305.1,347.1,220.7,310.4,173.2"/>
	<path class="st3" d="M395.8,305.2c-10.6-8.3-23-12.6-37.9-10.8c-9.6-10-21.9-14.5-37.9-11.6c-3.3,31,3.3,53.2,21.9,64.8
		C372.7,341.6,389.3,326.6,395.8,305.2"/>
	<path class="st4" d="M359.4,294.2c-8,13.2-12.1,28.4-15,44.3c0.9-16.5,3.3-32.3,11.8-45.8c0.6,0.5,1.2,1.1,1.7,1.7
		C358.4,294.3,358.9,294.2,359.4,294.2"/>
	<path class="st3" d="M331.9,357.8c14.1-11,30.4-16.7,50.2-14.3c12.7-13.2,29-19.2,50.2-15.3c4.3,41-4.4,70.4-29,85.7
		C362.5,406,340.6,386.1,331.9,357.8"/>
	<path class="st4" d="M380.1,343.2c10.6,17.4,16,37.6,19.9,58.6c-1.1-21.8-4.4-42.8-15.6-60.6c-0.8,0.7-1.5,1.5-2.3,2.2
		C381.5,343.4,380.8,343.3,380.1,343.2"/>
	<g>
		<polygon class="st5" points="369.4,410.4 294,410.4 299.3,450.6 369.4,450.6 452.3,450.6 457.5,410.4 		"/>
	</g>
	<g>
		<polygon class="st6" points="369.4,410.4 294,410.4 299.3,450.6 365.7,447.7 448.6,447.7 457.5,410.4 		"/>
	</g>
	<g>
		<polygon class="st6" points="307.9,450.6 369.4,450.6 443.6,450.6 433.6,559.1 369.4,559.1 318,559.1 		"/>
	</g>
	<g>
		<polygon class="st5" points="338.7,450.6 334.1,410.4 306.4,410.4 311,450.6 		"/>
	</g>
	<g>
		<polygon class="st5" points="328,559.1 355.6,559.1 343.9,450.6 316.3,450.6 		"/>
	</g>
	<g>
		<polygon class="st5" points="307.9,450.6 443.6,450.6 441.8,470.2 308.5,457.2 		"/>
	</g>
	<g>
		<polygon class="st5" points="316.3,450.6 343.9,450.6 345,460.8 317.1,458.1 		"/>
	</g>
	<path class="st1" d="M721.4,354.2c-15.2,43.1-18,87.2-18,87.2l-5.5-5.5L674.3,361h9.7l15.9,46.5l13.9-53.3H721.4z"/>
	<g>
		<polygon class="st5" points="683.9,418 612.4,418 617.4,456.2 683.9,456.2 762.5,456.2 767.5,418 		"/>
	</g>
	<g>
		<polygon class="st6" points="683.9,418 612.4,418 617.4,456.2 680.4,453.4 759,453.4 767.5,418 		"/>
	</g>
	<g>
		<polygon class="st6" points="683.9,418 612.4,418 612.9,422.3 766.4,422.3 767.5,418 		"/>
	</g>
	<g>
		<polygon class="st6" points="625.6,456.2 683.9,456.2 754.3,456.2 744.7,559.1 683.9,559.1 635.1,559.1 		"/>
	</g>
	<g>
		<polygon class="st5" points="654.7,456.2 650.3,418 624.1,418 628.5,456.2 		"/>
	</g>
	<g>
		<polygon class="st5" points="644.6,559.1 670.8,559.1 659.7,456.2 633.5,456.2 		"/>
	</g>
	<g>
		<polygon class="st5" points="625.6,456.2 754.3,456.2 752.6,474.8 626.1,462.5 		"/>
	</g>
	<g>
		<polygon class="st5" points="633.5,456.2 659.7,456.2 660.7,465.8 634.2,463.2 		"/>
	</g>
	<path class="st1" d="M619.9,291c0,0,6-4.6,5.2-15.8c-0.8-11.2,5.8-18,12.6-13.2c6.7,4.8-0.3,20.4-3.2,25.5
		c-2.9,5.2,2.1,22.5-6.3,26.2c-8.4,3.7-14.3,6.6-19.8,7.8c-5.6,1.2-12.4,6.7-16.7,8.2s-17.9,16.4-20.5,24.4
		c-18.2-28.4,6.6-101.8,42.1-96.1c5.6,0.9,14.9,1,11,9.3C620.3,275.6,613.8,290.9,619.9,291"/>
	<path class="st1" d="M634.4,287.5c2.9-5.2,9.9-20.7,3.2-25.5c-6.8-4.8-13.4,2-12.6,13.2c0.8,11.2-5.2,15.8-5.2,15.8
		c-0.7,0-1.3-0.2-1.7-0.6c-27.1,9.3-39.1,36.9-47.3,62.7c0,0.4,0.1,0.7,0.1,1.1c2.6-8,16.1-22.9,20.5-24.4c4.3-1.5,11.1-7,16.7-8.2
		c5.6-1.2,11.4-4.1,19.8-7.8C636.5,310,631.5,292.7,634.4,287.5"/>
	<path class="st1" d="M652.7,237c10.3-4.2,17.7,15.8,14.5,23.5c-0.1,0.3-0.2,0.6-0.3,0.9l-0.1,0.3c-0.1,0.3-0.1,0.5-0.2,0.8v0.2
		c-0.1,0.3-0.1,0.6-0.1,0.9v0.2c0,0.2,0,0.5,0,0.7v0.2c0,0.3,0,0.6,0,0.9v0.2c0,0.2,0,0.5,0.1,0.7v0.2c0,0.3,0.1,0.5,0.1,0.8l0,0
		c0.1,0.3,0.1,0.5,0.2,0.8l0.1,0.2c0.1,0.2,0.1,0.4,0.2,0.6l0.1,0.1c0.1,0.2,0.2,0.5,0.3,0.7l0.1,0.2c0.1,0.2,0.2,0.4,0.3,0.6
		l0.1,0.2c0.1,0.2,0.2,0.4,0.3,0.7v0.1c0.1,0.2,0.2,0.4,0.3,0.6l0.1,0.1c0.2,0.4,0.5,0.8,0.7,1.1l0.1,0.1c0.1,0.2,0.2,0.3,0.3,0.5
		c0.8,1,1.3,1.7,1.3,1.7c4.3,2.4,10.3-1.3,8.7-12.2c-1.6-10.9,5.2-19.3,16.4-17.6c11.3,1.8,14.8,15,17.7,22.4s-2.6,30.9-11.6,44.1
		s-24.8,20.3-25.1,24.2c-0.3,3.9-4.6,36.5-17.4,46.1c4.5-18.4-19.9-36.8-27.7-71.6C624.3,276.2,642.4,241.1,652.7,237"/>
	<path class="st1" d="M674.8,413.2c2.6-89.5,24.3-127.6,42.1-143.7c14.8-13.5,28.2-12.8,28.3-12.8l0.3-4.8
		c-0.6,0-15.3-0.9-31.7,13.9c-18.5,16.7-41.1,55.8-43.8,147.3L674.8,413.2z"/>
	<path class="st1" d="M682.5,404.1c31.4-155.5-5-177.9-6.6-178.7l-2.4,4.1c0.1,0.1,8.7,5.5,13.6,29.4c4.5,22.2,6.6,65.3-9.3,144.2
		L682.5,404.1z"/>
	<path class="st3" d="M696.4,196.2c0,0-19.6,20.1-19.6,35.5c-17.7,12.4-49.6,31.8-55.8,43.5c-6.2,11.8-20.9,30-37.5,30.8
		s-25.9,7.5-25.9,7.5s6.3-12.3,11-21.8c11.5-23.2,48.7-69.1,74.7-75.9c15.4-4,13.9-15.1,23.4-16.9
		C676.2,197.2,696.4,196.2,696.4,196.2"/>
	<path class="st4" d="M677.6,229.6c0,0-14.3-34.1-7.2-50.7c-31.3-1.7-46.9,85.2-55.5,104.9C622.7,280.4,677.9,230.3,677.6,229.6"/>
	<path class="st3" d="M741.4,351.4c0,0-5-5.6-2.1-16.4s-2.3-18.7-9.8-15.3c-7.5,3.4-3.6,20-1.7,25.7c1.9,5.6-6.3,21.7,1.3,26.9
		c7.5,5.2,12.8,9.2,18,11.4c5.2,2.2,10.9,8.9,14.9,11.2c4,2.3,14.4,19.5,15.5,27.8c23.3-24.4,12.7-101.2-23.2-102.3
		c-5.6-0.2-14.9-1.9-12.6,7C743.9,336.3,747.5,352.5,741.4,351.4"/>
	<path class="st4" d="M727.8,345.3c1.9,5.6-6.3,21.7,1.3,26.9c7.5,5.2,12.8,9.2,18,11.4c5.2,2.2,10.9,8.9,14.9,11.2
		c4,2.3,14.4,19.5,15.5,27.8c0.1-0.3,0.2-0.7,0.3-1c-3.2-26.9-9.7-56.3-34.6-70.5c-0.5,0.3-1,0.4-1.8,0.3c0,0-5-5.6-2.1-16.4
		s-2.3-18.7-9.8-15.3C722,323.1,725.9,339.7,727.8,345.3"/>
	<path class="st3" d="M697.7,319.2c0,0-8.7-9.1-4.8-18.7c4-9.5-5.2-34.2-17.9-29s-34.9,48.5-25.4,91.3c9.5,42.9,29.1,65.5,23.5,88.2
		c15.8-11.9,31.7-52,32.1-56.8c0.4-4.8,19.9-13.5,31-29.8s17.9-45.3,14.3-54.4c-3.6-9.1-7.9-25.4-21.8-27.6
		c-13.9-2.2-22.2,8.1-20.3,21.7C710.4,317.6,703,322.1,697.7,319.2"/>
	<path class="st4" d="M675.1,271.6c12.7-5.2,21.8,19.5,17.9,29c-2.8,6.8,0.8,13.4,3.1,16.6c-17.6,31.7-7.3,71.5-11.1,106.4
		c-1.6,14.6-11,26.9-11.9,27.5c5.6-22.6-13.9-45.3-23.5-88.2c-1.4-6.3-2.1-12.6-2.3-18.8C646.5,308.1,664.2,276,675.1,271.6"/>
	<path class="st3" d="M634.3,329.6c0,0-2-9.6,4.5-14.2s10.6-24.5,0.2-26.3c-10.4-1.8-42.8,17.4-54.2,49.4s-7.9,54.9-20.8,67.4
		c20.8-3.7,103.2-32.3,108.6-60.6c1.4-7.4,5.2-19.9-3-27.1c-8.2-7.1-17.9-3.8-22.2,5.9C643.3,333.7,636.6,333.6,634.3,329.6"/>
	<path class="st4" d="M639,289c10.4,1.8,6.3,21.7-0.2,26.3c-4.7,3.3-5,9.1-4.8,12.2c-24.5,13.5-34.1,43.9-50.9,65.1
		c-7,8.9-18.2,13.1-19.1,13.1c13-12.5,9.5-35.4,20.8-67.4C596.2,306.4,628.6,287.2,639,289"/>
	<path class="st3" d="M742.2,249.2c0,0-9.5-10.7-4-31.2c5.6-20.5-4.4-35.6-18.7-29.1s-6.8,38.1-3.2,48.7
		c3.6,10.6-11.9,41.2,2.4,51.1c14.3,10,24.2,17.5,34.2,21.7c9.9,4.2,20.7,16.9,28.2,21.3s27.4,36.9,29.4,52.8
		c13.8-42.2,24.1-192.1-44.1-194.3c-10.7-0.3-28.2-3.6-23.8,13.3C746.9,220.5,753.7,251.3,742.2,249.2"/>
	<path class="st4" d="M719.5,188.9c14.3-6.5,24.2,8.5,18.7,29.1c-5.6,20.5,4,31.2,4,31.2c1.4,0.3,2.5,0,3.4-0.6
		c47.2,27.1,59.6,82.8,65.6,133.9c-0.2,0.7-0.4,1.3-0.6,2c-3.1-24.6-33.3-59-57.6-70.6C704.9,290.7,675.4,209.6,719.5,188.9"/>
	<path class="st7" d="M958.8,282.2c14.6-14.5,21.3,15.4,24.2,25.2c4.3,15.1,7.6,30.4,10.1,45.9c2.6,15.9,4.2,32,4.9,48.1
		c0.3,8.1,0.4,16.1,0.3,24.2c-0.1,7.2-2.4,17.9,2.3,24c1.4,1.8,3.9,2.6,5.7,0.7c6.2-6.3,4.4-18.7,4.3-26.8
		c-0.1-10.1-0.5-20.2-1.2-30.2c-1.4-18.9-4-37.9-8-56.4c-3.8-17.1-8.3-35.7-16.2-51.4c-3.1-6.1-8.2-12.7-15.2-14.3
		c-6.7-1.5-12.2,2.2-15.8,7.5C952.1,281.5,956.4,284.6,958.8,282.2L958.8,282.2z"/>
	<path class="st4" d="M927.1,238.1c-7.3-8.2-19.1-12.3-29.5-7.6c8.6-8.1,26.2-18.6,36.7-10.8c7.3,5.4,12.4,10.9,10,22.1
		c-2.4,11.3,10.5,18.4,9.1,8.6c-1.6-11.1-6.5-29-18.2-33.7c10.8-4,31.4-2.8,33.9,10.7c1.9,10-10.5,9.3-10.6,15.7
		c0,6.4,0.5,20.7,7.8,16.8c9.7-5.1,12.4-24.5,6.1-34.2c14.7,5.4,38.6,23.1,37.4,38.8c-0.6,8.4-5.4,17.3-16.6,11.8
		c-11.2-5.5-25.6-9.7-26.1-8.1s-0.5,1.6-0.5,1.6s-1.3,3.9,8.5,5.5c14.8,2.3,39.2,18.3,31.6,35.1c-6.8,15.2-21.5,8.9-21.5,8.9
		s5.3-6.4,1.6-16.6s-16.8-17-10.8-6.2c6,10.7,9.3,21.2,4.1,23.3c-4.2,1.6-15.2,4.8-18.7,6.7c1.3-1.2,3.2-4.2,4.9-12.6
		c2.7-13.4-3.4-27.2-6.2-21.6c-2.7,5.6,1.4,20.5-0.4,27.1c-1.8,6.6-11.8,9.9-15.1,13.9c1.9-10.8,2.6-15.9,3.5-25s-3.4-20.4-4.6-9.4
		c-1.2,11.1-0.1,28.2-9.5,36.3c-8.8-1.4-14.1,3.8-14.1,3.8s5.9-17.3,8.9-22s6.3-21,3.3-22.8c-3-1.9-6,16.1-6.8,22.4
		c-1.2,9.2-8.1,20.2-14.1,28.4c2.9-14.1,12.8-38,6.6-47.2c-3.2-4.6-7.9,13.9-7.6,23.6c0.3,9.7-1.5,15.5-6.7,28.7
		c0.2-16.4,1.3-18.5,0.8-30.4s4.2-18,1-20.5s-7.1,13.3-7.6,26.7c-0.5,13.4-6.1,26.9-9,28.5s-15.8-1-15.8-1c-2.4-6.9-3.5-10.6-5.4-18
		c0,0,4.9-16.3,10.5-19.5c5.5-3.2-5.1-15.8-13.1,14.4c-2.2-15.3,0.7-22.8,0.7-22.8s9.6-14.8,17.3-12.4c7.7,2.3,16.7-11.9,7.7-9.1
		c-10.7,3.3-19.7,12.2-26,21.5c0.1-6.5,0.2-9.8,0.8-16.3c0,0,14.9-18.1,24.8-16.5c9.9,1.6,13,6.5,15.7,3.1c2.8-3.4-2.9-11.8-16-8.2
		c-13.1,3.6-22.1,16.8-22.1,16.8c2.8-11.4,4.7-16.9,9.4-27.2c0,0,24-6,30.8-2.7s12.6-3.8,3.8-7.3c-10.4-4.2-22.7-1.9-31.5,5.6
		c4.7-11.5,16.2-22,21.3-21.9c5.1,0,17.9,5.2,22.2,11C927.7,249.1,935.3,247.4,927.1,238.1 M952.5,288.4c6.2,1.7,1.4-3.3,2.1-5.7
		c-0.3-1.7-2.1-0.1-3.3-0.9C949.6,284.3,951.5,288.4,952.5,288.4z M887.7,317.8c1.1,7.7-2.3,13.5-3.8,22.7c-0.6,4,2.7,4.9,4.3,1.9
		c5.1-9,6.2-19.9,5.1-28.6c-0.5-4.6-1.1-4.1-1.9-3.6C889.6,311.6,887.5,314,887.7,317.8z M933.4,266.2c1.1-0.2,2.2-0.5,3.3-0.6
		c3.5-4.8,0-14.9-9.5-12.4C926.3,258.6,929,262.9,933.4,266.2z"/>
	<path class="st4" d="M927.1,238.1c-7.3-8.2-19.1-12.3-29.5-7.6c8.6-8.1,26.2-18.6,36.7-10.8c7.3,5.4,12.4,10.9,10,22.1
		c-2.4,11.3,10.5,18.4,9.1,8.6c-1.6-11.1-6.5-29-18.2-33.7c10.8-4,31.4-2.8,33.9,10.7c1.9,10-10.5,9.3-10.6,15.7
		c0,6.4,0.5,20.7,7.8,16.8c9.7-5.1,12.4-24.5,6.1-34.2c14.7,5.4,38.6,23.1,37.4,38.8c-0.6,8.4-5.4,17.3-16.6,11.8
		c-11.2-5.5-25.6-9.7-26.1-8.1s-0.5,1.6-0.5,1.6s-0.1,0.4,0,1c-40,4.1-69.3,15-88.6,52.2c-3.3,8.7-4.6,19.2-5,30.3
		c-0.1,0-0.2,0-0.2,0c-2.4-6.9-3.5-10.6-5.4-18c0,0,4.9-16.3,10.5-19.5c5.5-3.2-5.1-15.8-13.1,14.4c-2.2-15.3,0.7-22.8,0.7-22.8
		s9.6-14.8,17.3-12.4c7.7,2.3,16.7-11.9,7.7-9.1c-10.7,3.3-19.7,12.2-26,21.5c0.1-6.5,0.2-9.8,0.8-16.3c0,0,14.9-18.1,24.8-16.5
		c9.9,1.6,13,6.5,15.7,3.1c2.8-3.4-2.9-11.8-16-8.2c-13.1,3.6-22.1,16.8-22.1,16.8c2.8-11.4,4.7-16.9,9.4-27.2c0,0,24-6,30.8-2.7
		s12.6-3.8,3.8-7.3c-10.4-4.2-22.7-1.9-31.5,5.6c4.7-11.5,16.2-22,21.3-21.9c5.1,0,17.9,5.2,22.2,11
		C927.7,249.1,935.3,247.4,927.1,238.1 M933.4,266.2c1.1-0.2,2.2-0.5,3.3-0.6c3.5-4.8,0-14.9-9.5-12.4
		C926.3,258.6,929,262.9,933.4,266.2z"/>
	<path class="st2" d="M906.3,286.4c3.4-2.3,7-4.2,10.7-5.8c1.8-0.8,3.7-1.5,5.5-2.2c0.9-0.3,1.8-0.6,2.7-0.9s1.8-0.6,2.7-0.9
		c1.8-0.5,3.6-1.1,5.4-1.5c1.8-0.4,3.5-0.9,5.2-1.3c3.4-0.8,6.7-1.4,9.7-1.9c6-1,11.2-1.6,14.7-2c1.5-0.2,2.7-0.3,3.6-0.5
		c-0.1,0.3-0.1,0.3-0.1,0.3s-0.4,1.3,1,2.7c-0.9,0.1-1.9,0.2-3.1,0.3c-3.7,0.3-9,0.7-15.2,1.6c-3.1,0.4-6.4,1-9.9,1.6
		c-1.7,0.3-3.5,0.8-5.3,1.1c-1.8,0.4-3.6,0.9-5.4,1.4c-0.9,0.3-1.8,0.5-2.8,0.8c-0.9,0.3-1.9,0.6-2.8,0.9c-1.9,0.6-3.7,1.3-5.5,2.1
		c-3.7,1.5-7.2,3.3-10.7,5.5c-14.1,8.9-24.4,22.8-29.7,38.5c-2.5,7.3-3.7,14.4-4.1,19.3c-0.2,2.5-0.2,4.4-0.2,5.7c0,1.3,0,2,0,2
		s0-0.7-0.1-2c0-1.3,0-3.2,0.2-5.7c0.3-4.9,1.4-12,3.9-19.5C882,310,892.2,295.7,906.3,286.4"/>
	<path class="st2" d="M967.1,321.9c0.6-0.6,1.2-1.4,1.8-2.1s1.1-1.5,1.6-2.3s1-1.7,1.4-2.6c0.5-0.9,0.7-1.9,1.1-2.8
		c0.2-1,0.6-2,0.7-3.1c0.1-0.6,0.1-1,0.2-1.6c0-0.7,0-1,0-1.7c0.1-1.1-0.1-2.3-0.2-3.5c-0.1-1.2-0.5-2.4-0.8-3.6
		c-0.4-1.2-0.9-2.4-1.4-3.6c-0.8-1.4-1.2-2.2-2-3.6c-0.9-1.4-1.3-2.1-2.2-3.4s-1.3-2-2.2-3.3c-0.7-1.1-1.4-2.2-2.1-3.3
		c-0.7-1.1-1.3-2.2-1.9-3.3c-0.5-1.1-1.1-2.2-1.4-3.3c-0.1-0.5-0.2-1-0.2-1.5c0-0.2,0.1-0.4,0.1-0.6s0.3-0.3,0.2-0.3
		c0.2-0.2,0.3-0.3,0.5-0.6c-0.2-1.4-0.3-2.2-0.4-3.6c-0.2-1.2-0.3-2.4-0.5-3.6c-0.5-2.9-0.8-4.3-1.3-7.2c-1.1-5.8-1.6-8.6-2.7-14.4
		c-0.9-4.8-1.9-9.6-4-14.4c-1.1-2.4-2.4-4.8-4.6-7c-1.1-1.1-2.4-2.1-4-2.9c-1.6-0.8-3.7-1.4-5.8-1.5c2.1,0.2,4.1,0.8,5.6,1.6
		s2.7,1.9,3.7,2.9c1.9,2.2,3.1,4.5,4,6.9c1.8,4.7,2.6,9.5,3.4,14.3c0.4,2.4,0.8,4.8,1.3,7.2c0.5,2.9,0.8,4.3,1.3,7.2
		c0.5,2.9,0.8,4.3,1.3,7.2c0.4,2.4,0.6,4.8,1,7.2c0.2-0.2,0.3-0.3,0.5-0.6c-0.8,0.3-0.9,0.6-1.1,0.9c-0.2,0.3-0.2,0.6-0.2,1
		c0,0.6,0.1,1.3,0.3,1.9c0.3,1.2,1,2.4,1.6,3.5s1.3,2.3,2,3.4s1.5,2.2,2.2,3.4c0.9,1.3,1.4,2,2.3,3.4c0.9,1.3,1.4,2,2.3,3.4
		c0.8,1.3,1.2,2,2,3.4c0.5,1.1,1,2.3,1.5,3.5c0.3,1.1,0.7,2.3,0.9,3.5c0.1,1.1,0.4,2.3,0.4,3.4c0,0.7,0,1,0,1.6
		c-0.1,0.6-0.1,0.9-0.2,1.6c-0.1,1.1-0.4,2-0.6,3.1c-0.3,0.9-0.5,2-0.9,2.8c-0.3,0.9-0.8,1.8-1.2,2.7
		C969.2,318.9,968.3,320.5,967.1,321.9"/>
	<path class="st2" d="M927.5,330.6c1-2.1,1.9-4.3,2.8-6.5c0.4-1.1,0.9-2.2,1.3-3.3c0.5-1.1,0.8-2.3,1.3-3.4c0.4-1.1,0.8-2.3,1.3-3.4
		c0.4-1.2,0.8-2.3,1.2-3.5s0.8-2.3,1.2-3.5c0.3-1.2,0.8-2.4,1.1-3.6s0.7-2.4,1.1-3.6c0.4-1.5,0.6-2.2,1-3.7c0.3-1.2,0.6-2.5,0.9-3.7
		c0.3-1.2,0.5-2.5,0.8-3.7s0.6-2.5,0.8-3.7c0.3-1.2,0.6-2.5,0.8-3.7c0.3-1.2,0.5-2.5,0.7-3.8s0.4-2.5,0.5-3.9l0,0v-0.1
		c-0.5-2.4-1.1-4.7-1.7-7c-0.6-2.3-1.2-4.7-1.9-7c-0.9-2.8-1.3-4.2-2.2-6.9c-0.8-2.3-1.4-4.6-2.1-6.9c-1.4-4.6-2.9-9.3-5.4-13.6
		c-1.3-2.2-2.8-4.3-5-6c-1.1-0.9-2.4-1.6-4-2.1s-3.6-0.6-5.6-0.3c2-0.3,3.9,0,5.3,0.5c1.5,0.5,2.7,1.3,3.7,2.2
		c2,1.8,3.4,3.9,4.5,6.1c2.2,4.3,3.5,9,4.8,13.6c1.2,4.6,2.8,9.2,4.2,13.8c0.7,2.3,1.3,4.6,1.9,6.9c0.7,2.8,1,4.2,1.7,7v-0.1
		c0,1.2-0.2,2.5-0.4,3.7s-0.4,2.5-0.6,3.7c-0.2,1.2-0.5,2.5-0.7,3.7s-0.5,2.5-0.7,3.7c-0.3,1.2-0.5,2.5-0.8,3.7s-0.5,2.5-0.8,3.7
		c-0.4,1.5-0.5,2.2-0.9,3.7c-0.3,1.2-0.7,2.4-1,3.6s-0.7,2.4-1,3.6s-0.7,2.4-1.1,3.5c-0.3,1.2-0.8,2.3-1.1,3.5
		c-0.4,1.2-0.8,2.3-1.1,3.5c-0.4,1.1-0.7,2.3-1.2,3.4c-0.4,1.1-0.8,2.3-1.2,3.4C929.2,326.2,928.4,328.5,927.5,330.6"/>
	<path class="st2" d="M904.5,344.3c0.1-1.4,0.2-2.7,0.3-4.1s0.1-2.7,0.2-4.1c0.1-1.4,0.2-2.7,0.3-4.1s0.2-2.7,0.3-4.1
		c0.2-2.7,0.5-5.4,0.8-8.2c0.3-2.7,0.7-5.4,1.1-8.2c0.5-3.3,0.8-4.9,1.4-8.1c0.3-1.4,0.6-2.7,0.9-4c0.3-1.3,0.8-2.7,1.3-4
		c0.9-2.7,2.1-5.3,3.5-7.8c0.7-1.2,1.5-2.5,2.4-3.6c0.9-1.2,1.8-2.3,2.8-3.3c0.1-0.1,0.2-0.2,0.4-0.4c0-0.1-0.1-0.2-0.1-0.4
		c-0.5-2.1-1.3-4.1-2.3-6c-0.9-1.9-2.1-3.7-3.5-5.3c-0.7-0.8-1.5-1.6-2.3-2.3c-0.9-0.7-1.7-1.3-2.7-1.9c-0.5-0.3-1-0.5-1.5-0.7
		s-1.1-0.5-1.6-0.6c-1.1-0.3-2.2-0.6-3.4-0.9c-4.6-0.9-9.7-0.8-14.9,0.8c-1.3,0.4-2.6,0.9-3.9,1.5c-1.3,0.6-2.6,1.3-3.9,2.2
		c-1.3,0.8-2.6,1.8-3.9,2.9c-0.8,0.7-1.1,1-1.9,1.7c-0.7,0.8-1.1,1.1-1.8,1.9c0.7-0.7,1.1-1.1,1.8-1.8c0.7-0.6,1.1-1,1.9-1.6
		c1.3-1,2.5-1.9,3.8-2.6s2.6-1.4,3.8-1.9c1.3-0.5,2.5-1,3.8-1.3c5.1-1.4,9.9-1.3,14.3-0.4c1.1,0.2,2.2,0.5,3.3,0.8
		c0.6,0.2,1,0.4,1.5,0.6s1,0.4,1.4,0.7c0.9,0.5,1.7,1.1,2.6,1.8c0.8,0.7,1.5,1.4,2.2,2.2c1.3,1.6,2.4,3.3,3.3,5.1
		c0.9,1.8,1.7,3.8,2.2,5.7c0.1-0.3,0.2-0.4,0.3-0.7c-1.2,1.2-2.1,2.3-3,3.6c-0.9,1.2-1.7,2.5-2.4,3.8c-1.4,2.6-2.6,5.3-3.5,8
		c-0.4,1.4-0.9,2.7-1.2,4.1c-0.4,1.4-0.6,2.8-0.9,4.1c-0.6,3.3-0.9,4.9-1.3,8.2c-0.3,2.7-0.7,5.5-0.9,8.2s-0.5,5.4-0.6,8.1
		c0,1.3-0.1,2.7-0.2,4.1c-0.1,1.4-0.1,2.7-0.1,4c-0.1,1.4,0,2.7-0.1,4.1C904.6,341.6,904.5,342.9,904.5,344.3"/>
	<path class="st8" d="M1049,256.6c-0.2-8.2-3.2-15.8-7.4-22.7c-3.2-5.3-7.8-12.1-14.8-12.2c-6.2-0.1-9.4,5.2-10.8,10.5
		c-2.3,8.7-3.9,17.7-5.9,26.6c-2,8.9-4,17.7-4.4,26.9c-0.5,9.8-0.3,19.6-0.3,29.4c0.1,19.6,0.2,39.2,0.3,58.9
		c0.1,10.7,0.1,21.4,0.2,32.1c0.1,9.9-1.7,22.9,3.2,31.8c1.3,2.4,5,2.4,6.3,0c4.6-8.5,2.9-20.3,2.9-29.7
		c-0.1-10.7-0.2-21.4-0.2-32.1c-0.1-20.7-0.3-41.4-0.4-62.1c-0.1-20.5-0.6-40.5,2.8-60.8c0.9-5.2,1.8-10.4,2.7-15.6
		c0.7-4,1.8-11.6,7.6-6.6c7.3,6.4,9.5,17.5,11.7,26.5C1043.3,261.1,1049.1,260.4,1049,256.6L1049,256.6z"/>
	<path class="st3" d="M1109.2,258.5c19-2.1,32.7,2.5,38.1,10.7c-0.1-13.1-3.9-31.9-17.1-32.1c-13.2-0.1-21.8-1.3-36.9,10.4
		c-15,11.7-31.4,5.1-16.3-1.6c15.1-6.7,50.9-17,57.1-12c0.2-13.9-9.8-26.8-25.9-20.7s-12.3,16.9-21.9,21.8
		c-9.5,4.9-30.6,16.5-26.7,4.5s37.8-31.4,50.9-30.5c-8.3-11.5-34.6-23.6-49.3-17.4c-14.6,6.2-29.7,14.6-24.6,25.9
		c5,11.2,12.6,25.6,10.4,27.3c-2.3,1.7-2.3,1.7-2.3,1.7s-6.8,5.1-9.1-6.6c-2.3-11.7-16.2-42.8-44.1-26.1c-27.9,16.7-22.2,38-22.2,38
		s10.8-11.6,25.5-11.4c14.7,0.2,25,14.2,8.5,12.5s-32-2.5-35.3,8c-2.7,8.5-4.6,31.7-5.2,40.2c0.9-3.6,4.4-10.3,16.3-20.1
		c18.9-15.6,41.1-17,34-8.5s-30.7,15.3-39.2,24.9s-4.5,31.8-5.3,43.1c10.7-18.3,17.2-24.7,28.8-35.7s30.2-16.9,16.5-3.6
		c-13.8,13.3-40,37.8-32.8,58.8c14.8,10.1,20.9,21.5,20.9,21.5s4.9-31.3,5.9-40.9c1-9.7,17.5-32.3,23-31.2
		c5.5,1.1-10.6,24.8-17.6,34.5c-7.1,9.7-4.6,43.9,2.8,52.3c3.1-36.8,14.9-67.6,28.1-68.9c13.3-1.3-2,22.5-10.4,35.5
		s-10.3,23.8-2.5,43c4.8-23.4,5.1-26.7,14.9-42.1s8.1-24.9,15.7-26.1c7.6-1.3,0.3,19-6.5,36.3c-6.9,17.2,3.8,34.1,10.9,34.9
		c7.1,0.7,39.9-9.3,39.9-9.3l14.5-19.9c0,0-7.6-14-18.1-16.8s11.6-13.7,25.3,10.7c8.1-15.3,5.6-21.6,5.6-21.6s-12-13.4-28.3-11.8
		s-20.1-17.3-6.6-11.6c13.5,5.7,37.3,23.1,37.3,23.1l6.8-15.8c0,0-15.4-17.9-32.8-19.4c-17.3-1.5-26.6,1.6-26.8-3.7
		c-0.2-5.2,15.2-9.6,32.3-1.6c17,8,25.6,20.1,25.6,20.1l4.7-27.6c0,0-28.8-13.8-40.8-14.4c-12-0.7-9.6-11.3,4.6-9.5
		c14.3,1.8,30.6,10.5,35.4,19c4-12.4,1.6-26.6-4.1-29s-24.4-5.4-35.8-3.2C1093.7,268.3,1090.2,260.6,1109.2,258.5 M1022.3,279.2
		c-5.9-6.4,3.9-4.8,7.1-7.7c2.5-1.1,1.1,2.5,2.9,3.2C1029.7,278.9,1022.8,280.5,1022.3,279.2z M1080.3,365.2c-6.6,9-1.9,16-0.5,25.9
		c0.4,4.3-7.7,6.5-10.7,3.2c-9.9-9.6-5.8-24.5,2.4-34.7c4.1-5.4,4.9-4.7,6.1-3.9C1080,357.8,1082.8,360.8,1080.3,365.2z
		 M1066.1,279.3c-0.6-1.3-1.1-2.5-1.7-3.8c4.1-7.9,19.8-13.3,24.3-3.2C1082.3,278.2,1074.1,280.3,1066.1,279.3z"/>
	<path class="st4" d="M1109.2,258.5c19-2.1,32.7,2.5,38.1,10.7c-0.1-13.1-3.9-31.9-17.1-32.1c-13.2-0.1-21.8-1.3-36.9,10.4
		c-15,11.7-31.4,5.1-16.3-1.6c15.1-6.7,50.9-17,57.1-12c0.2-13.9-9.8-26.8-25.9-20.7s-12.3,16.9-21.9,21.8
		c-9.5,4.9-30.6,16.5-26.7,4.5s37.8-31.4,50.9-30.5c-8.3-11.5-34.6-23.6-49.3-17.4c-14.6,6.2-29.7,14.6-24.6,25.9
		c5,11.2,12.6,25.6,10.4,27.3c-2.3,1.7-2.3,1.7-2.3,1.7s-0.6,0.5-1.5,0.8c2.3,47.1,35.2,83.1,55.9,123.2c3.9,8.8,5,18.9,6.5,29
		c0.4-0.1,0.6-0.2,0.6-0.2l14.5-19.9c0,0-7.6-14-18.1-16.8s11.6-13.7,25.3,10.7c8.1-15.3,5.6-21.6,5.6-21.6s-12-13.4-28.3-11.8
		s-20.1-17.3-6.6-11.6c13.5,5.7,37.3,23.1,37.3,23.1l6.8-15.8c0,0-15.4-17.9-32.8-19.4c-17.3-1.5-26.6,1.6-26.8-3.7
		c-0.2-5.2,15.2-9.6,32.3-1.6c17,8,25.6,20.1,25.6,20.1l4.7-27.6c0,0-28.8-13.8-40.8-14.4c-12-0.7-9.6-11.3,4.6-9.5
		c14.3,1.8,30.6,10.5,35.4,19c4-12.4,1.6-26.6-4.1-29s-24.4-5.4-35.8-3.2C1093.7,268.3,1090.2,260.6,1109.2,258.5 M1066.1,279.3
		c-0.6-1.3-1.1-2.5-1.7-3.8c4.1-7.9,19.8-13.3,24.3-3.2C1082.3,278.2,1074.1,280.3,1066.1,279.3z"/>
	<path class="st2" d="M1105.4,392.1c0.2,1.2,0.2,2.2,0.3,3.1c0,0.9,0.1,1.7,0,2.3c-0.1,1.2-0.1,1.9-0.1,1.9s0-0.7,0.1-1.9
		c0-0.6,0-1.4,0-2.3C1105.6,394.3,1105.6,393.3,1105.4,392.1c-0.5-4.6-2.3-11.1-5.3-18.5s-7.3-15.7-12.2-24.4
		c-4.9-8.7-10.4-17.8-15.9-26.9c-2.7-4.6-5.5-9.1-8.1-13.6c-2.7-4.5-5.2-9-7.3-13.5c-4.3-8.9-7.4-17.7-9.3-25.4
		c-1.9-7.7-2.7-14.2-3-18.8c-0.1-1.6-0.1-3-0.1-4.1c-0.6,0.3-1.6,0.8-2.7,0.8c0,1,0.1,2.2,0.2,3.5c0.3,4.7,1.3,11.4,3.4,19.2
		c2.1,7.8,5.4,16.6,9.9,25.6c2.2,4.5,4.9,9,7.6,13.5s5.5,9,8.4,13.5c5.6,9,11.3,18,16.3,26.7c5,8.6,9.4,16.8,12.6,24.2
		C1103,381,1104.8,387.5,1105.4,392.1"/>
	<path class="st2" d="M975.5,237.5c0,0,0.3-0.6,1-1.6s1.7-2.5,3.1-4.2c1.5-1.7,3.4-3.8,6-5.6c2.6-1.9,5.9-3.6,9.9-3.9
		c4-0.3,8.3,1,12.1,3.5c1.9,1.3,3.6,2.7,5.4,4.2c1.8,1.5,3.6,3.1,5.4,4.8c3.6,3.3,7.1,6.9,10.7,10.4c1.8,1.8,3.7,3.5,5.7,5
		s4.4,2.7,6.5,1.9c0.5-0.2,1.1-0.4,1.5-0.8c0.5-0.4,1.1-0.7,1.5-1.1c0.5-0.4,0.9-0.8,1.3-1.3c0.4-0.4,0.8-0.9,1.2-1.4
		c1.5-2,2.7-4.2,3.6-6.5c1.7-4.7,2.3-9.7,1.9-14.4c0-0.6-0.1-1.2-0.1-1.8s0-1.3,0.1-1.9c0.1-1.2,0.3-2.4,0.6-3.6
		c0.5-2.3,1.3-4.5,2.2-6.6c1.8-4.1,4.3-7.7,7.1-10.4c2.8-2.7,6.1-4.6,9.1-5.5c3.1-0.9,5.9-1,8.2-0.8c2.3,0.2,4,0.7,5.2,1
		c1.2,0.4,1.8,0.6,1.8,0.6s-0.6-0.2-1.8-0.5c-1.2-0.3-2.9-0.7-5.2-0.8c-2.2-0.1-5,0.1-8,1c-3,1-6,2.9-8.7,5.6
		c-2.7,2.7-5,6.2-6.7,10.3c-0.9,2-1.6,4.2-2,6.4c-0.2,1.1-0.4,2.3-0.5,3.4c0,0.6-0.1,1.2-0.1,1.7c0,0.6,0.1,1.2,0.1,1.8
		c0.4,4.9-0.1,10.1-1.9,15c-0.9,2.4-2.1,4.8-3.7,6.9c-0.4,0.5-0.8,1-1.3,1.5c-0.4,0.5-0.9,1-1.5,1.4c-0.5,0.5-1,0.8-1.6,1.2
		s-1.2,0.7-1.9,1c-1.4,0.5-2.9,0.3-4.2-0.2c-1.3-0.5-2.5-1.2-3.5-2c-2.1-1.6-4-3.4-5.8-5.2c-3.6-3.6-7.1-7.2-10.7-10.5
		c-1.8-1.7-3.5-3.2-5.3-4.8c-1.7-1.5-3.5-3-5.3-4.3c-3.6-2.5-7.7-3.8-11.5-3.5c-3.8,0.2-7.1,1.8-9.7,3.5c-2.6,1.8-4.6,3.7-6.1,5.4
		s-2.6,3.1-3.3,4.1C975.8,237,975.5,237.5,975.5,237.5"/>
	<path class="st2" d="M966.9,286.1c1.5-3.4,3.5-6.6,5.7-9.5c2.3-3,4.8-5.7,7.7-8.1c1.4-1.2,2.9-2.3,4.5-3.3s3.2-1.9,4.9-2.7
		c0.9-0.4,1.7-0.8,2.6-1.1c0.9-0.3,1.8-0.6,2.7-0.9c1.8-0.5,3.6-0.9,5.5-1.2c0.9-0.1,1.9-0.2,2.8-0.3l2.8-0.1l2.8,0.1l2.8,0.3
		l5.5,0.6c1.8,0.2,3.7,0.3,5.5,0.4s3.7,0.2,5.5,0.2c1.8,0,3.7-0.1,5.5-0.2c1.8-0.2,3.6-0.4,5.3-0.9c0.9-0.3,1.7-0.6,2.4-1
		c0.3-0.2,0.7-0.5,0.9-0.7c0.2-0.1,0.2-0.3,0.3-0.4l0.1-0.3l0.4-0.6l5.5-2.3c1.8-0.8,3.6-1.6,5.5-2.3l11.1-4.3l11.1-4.3
		c3.7-1.4,7.3-2.9,11-4.3c7.4-2.9,14.8-5.8,22.4-7.8c3.8-1,7.8-1.7,11.8-1.7c2,0,4,0.2,5.9,0.8s3.6,1.7,4.9,3.2
		c-1.3-1.5-3.1-2.5-5-3c-1.9-0.6-3.9-0.7-5.8-0.7c-3.9,0.1-7.8,1-11.6,2c-7.6,2.1-14.9,5.1-22.2,8.1c-3.6,1.5-7.3,3-11,4.4l-11,4.4
		l-11,4.4c-1.8,0.7-3.6,1.5-5.4,2.3l-5.4,2.3l0.4-0.6c-0.1,0.9-0.5,1.2-0.8,1.7c-0.4,0.4-0.8,0.7-1.2,1c-0.9,0.5-1.8,0.8-2.7,1.1
		c-1.9,0.6-3.7,0.8-5.6,1c-1.9,0.1-3.7,0.2-5.6,0.2s-3.7-0.1-5.6-0.2s-3.7-0.3-5.6-0.5l-5.5-0.6l-2.7-0.3l-2.7-0.1l-2.7,0.1
		c-0.9,0.1-1.8,0.1-2.7,0.3c-1.8,0.3-3.6,0.6-5.4,1.1c-0.9,0.2-1.8,0.5-2.6,0.8c-0.9,0.3-1.7,0.7-2.6,1c-1.7,0.7-3.3,1.6-4.9,2.6
		c-1.6,1-3.1,2-4.5,3.2c-2.9,2.3-5.5,4.9-7.8,7.8c-1.2,1.4-2.2,2.9-3.2,4.5C968.6,282.8,967.7,284.4,966.9,286.1"/>
	<path class="st2" d="M995.5,361.2c0.4-4.3,1.3-8.5,2.4-12.6c1.1-4.1,2.4-8.2,4-12.2c1.5-4,3.3-7.9,5.3-11.7c2-3.8,4.1-7.5,6.4-11.1
		c1.2-1.8,2.4-3.6,3.6-5.3l1.9-2.6l2-2.5c1.4-1.7,2.7-3.3,4.1-4.9s2.9-3.2,4.3-4.8c1.4-1.6,2.9-3.1,4.4-4.7l2.2-2.3l2.3-2.2
		c1.5-1.5,3.1-2.9,4.7-4.4c1.6-1.4,3.2-2.8,5.1-4.1l0,0h0.1c1.8-0.8,3.6-1.6,5.4-2.4s3.6-1.6,5.5-2.3l5.5-2.2
		c1.8-0.7,3.7-1.5,5.5-2.2l11.1-4.2c3.7-1.4,7.3-2.9,11-4.3c7.4-2.9,14.8-5.8,22.4-7.8c3.8-0.9,7.8-1.7,11.8-1.7c2,0,4,0.2,5.9,0.8
		s3.6,1.7,4.9,3.3c-1.3-1.5-3.1-2.5-4.9-3.1c-1.9-0.6-3.9-0.7-5.8-0.7c-3.9,0.1-7.8,1-11.6,2c-7.6,2.1-14.9,5.1-22.2,8.1
		c-3.6,1.5-7.3,3-11,4.4l-11.1,4.2c-1.8,0.7-3.7,1.5-5.5,2.2l-5.5,2.2c-1.8,0.7-3.6,1.5-5.4,2.3l-5.4,2.3l0.1-0.1
		c-1.7,1.1-3.3,2.6-4.9,3.9c-1.6,1.4-3.2,2.8-4.7,4.3l-2.3,2.2l-2.2,2.3c-1.5,1.5-3,3-4.4,4.6c-1.5,1.6-2.9,3.1-4.3,4.7
		s-2.8,3.2-4.1,4.9l-2,2.5l-1.9,2.6c-1.3,1.7-2.5,3.5-3.7,5.2c-2.4,3.5-4.5,7.2-6.5,11s-3.8,7.6-5.4,11.6c-1.6,4-3,8-4.2,12.1
		C997.1,352.8,996.1,356.9,995.5,361.2"/>
	<path class="st2" d="M1030.8,397.4c0.3-2,0.8-4,1.3-5.9c0.5-2,1.1-3.9,1.7-5.8c0.5-1.9,1.2-3.8,1.9-5.8c0.6-1.9,1.3-3.8,2-5.7
		l2.1-5.7c0.7-1.9,1.5-3.8,2.3-5.6l2.3-5.6c0.8-1.9,1.6-3.7,2.4-5.5l5-11c0.8-1.8,1.7-3.7,2.4-5.5c0.8-1.8,1.5-3.7,2.2-5.6l1-2.8
		l0.9-2.9c0.6-1.9,1.1-3.9,1.5-5.8c0.4-2,0.8-3.9,1.1-5.9c0.3-2,0.5-4,0.5-5.9V306l0.3-0.2c3.1-1.8,6.4-3.3,9.8-4.6
		c3.4-1.3,6.8-2.3,10.4-3.1c3.5-0.7,7.1-1.1,10.8-1.1c1.8,0,3.6,0.2,5.4,0.5s3.5,0.6,5.3,0.9c1.8,0.4,3.5,0.8,5.2,1.3
		c1.7,0.4,3.4,1,5.2,1.6l2.5,0.9l2.5,1c1.7,0.7,3.3,1.4,4.9,2.2c0.8,0.4,1.6,0.8,2.4,1.3c0.8,0.4,1.6,0.9,2.3,1.4c1.5,0.9,3,2,4.4,3
		c0.7,0.6,1.4,1.1,2.1,1.7l2,1.8l1.9,1.9l1.7,2l-1.8-2l-1.9-1.8l-2-1.7c-0.7-0.6-1.4-1.1-2.1-1.6c-1.5-1-2.9-2-4.5-2.9
		c-0.8-0.5-1.6-0.9-2.3-1.3c-0.8-0.4-1.6-0.8-2.4-1.2c-1.6-0.8-3.2-1.5-4.9-2.1l-2.5-0.9l-2.5-0.8c-1.7-0.5-3.4-1-5.1-1.4
		c-1.7-0.5-3.5-0.8-5.2-1.1c-1.7-0.3-3.5-0.6-5.3-0.9c-1.7-0.3-3.5-0.4-5.2-0.4c-3.5,0-7,0.4-10.5,1.1s-6.8,1.8-10.1,3
		c-1.6,0.6-3.3,1.3-4.9,2.1c-1.6,0.8-3.2,1.6-4.7,2.4l0.3-0.6c0,2.1-0.3,4.1-0.5,6.1c-0.3,2-0.7,4-1.1,6c-0.5,2-1,3.9-1.6,5.9
		l-0.9,2.9l-1,2.9c-0.7,1.9-1.4,3.8-2.2,5.7c-0.8,1.9-1.6,3.7-2.5,5.5l-5.1,11c-0.9,1.8-1.7,3.6-2.5,5.5l-2.4,5.5
		c-0.8,1.8-1.6,3.7-2.3,5.6l-2.2,5.6c-0.8,1.9-1.4,3.8-2.1,5.7c-0.7,1.9-1.4,3.8-2,5.7c-0.6,1.9-1.3,3.8-1.8,5.8
		C1031.8,393.4,1031.2,395.4,1030.8,397.4"/>
	<g>
		<polygon class="st5" points="994.5,418 923,418 927.9,456.2 994.5,456.2 1073.1,456.2 1078,418 		"/>
	</g>
	<g>
		<polygon class="st6" points="994.5,418 923,418 927.9,456.2 990.9,453.4 1069.5,453.4 1078,418 		"/>
	</g>
	<g>
		<polygon class="st6" points="994.5,418 923,418 923.5,422.3 1077,422.3 1078,418 		"/>
	</g>
	<g>
		<polygon class="st6" points="936.1,456.2 994.5,456.2 1064.9,456.2 1055.3,559.1 994.5,559.1 945.7,559.1 		"/>
	</g>
	<g>
		<polygon class="st5" points="965.3,456.2 960.9,418 934.7,418 939,456.2 		"/>
	</g>
	<g>
		<polygon class="st5" points="955.2,559.1 981.4,559.1 970.3,456.2 944,456.2 		"/>
	</g>
	<g>
		<polygon class="st5" points="936.1,456.2 1064.9,456.2 1063.1,474.8 936.7,462.5 		"/>
	</g>
	<g>
		<polygon class="st5" points="944,456.2 970.3,456.2 971.3,465.8 944.8,463.2 		"/>
	</g>
	<path class="st9" d="M279.4,591h38.8l-12.5,138c-0.8,8.9-13.9,8.9-14.6,0L279.4,591z"/>
	<path class="st10" d="M292.5,591h12.6L301,704.8c-0.3,7.4-4.5,7.3-4.8,0L292.5,591z"/>
	<g>
		<path class="st5" d="M294.6,721c0-2.3,1.9-4.2,4.2-4.2s4.2,1.9,4.2,4.2s-1.9,4.2-4.2,4.2S294.6,723.3,294.6,721z"/>
	</g>
	<path class="st9" d="M1074.6,591h38.8l-12.5,138c-0.8,8.9-13.9,8.9-14.6,0L1074.6,591z"/>
	<path class="st10" d="M1087.7,591h12.6l-4.1,113.8c-0.3,7.4-4.5,7.3-4.8,0L1087.7,591z"/>
	<g>
		<path class="st5" d="M1089.8,721c0-2.3,1.9-4.2,4.2-4.2c2.3,0,4.2,1.9,4.2,4.2s-1.9,4.2-4.2,4.2
			C1091.7,725.2,1089.8,723.3,1089.8,721z"/>
	</g>
	<g>
		<rect x="207.3" y="559.1" class="st5" width="965.3" height="31.9"/>
	</g>
	<path class="st9" d="M279.4,1103h38.8l-12.5,138c-0.8,8.9-13.9,8.9-14.6,0L279.4,1103z"/>
	<path class="st10" d="M292.5,1103h12.6l-4.1,113.8c-0.3,7.4-4.5,7.3-4.8,0L292.5,1103z"/>
	<g>
		<path class="st5" d="M294.6,1233c0-2.3,1.9-4.2,4.2-4.2s4.2,1.9,4.2,4.2s-1.9,4.2-4.2,4.2S294.6,1235.3,294.6,1233z"/>
	</g>
	<path class="st9" d="M1074.6,1103h38.8l-12.5,138c-0.8,8.9-13.9,8.9-14.6,0L1074.6,1103z"/>
	<path class="st10" d="M1087.7,1103h12.6l-4.1,113.8c-0.3,7.4-4.5,7.3-4.8,0L1087.7,1103z"/>
	<g>
		<path class="st5" d="M1089.8,1233c0-2.3,1.9-4.2,4.2-4.2c2.3,0,4.2,1.9,4.2,4.2s-1.9,4.2-4.2,4.2
			C1091.7,1237.2,1089.8,1235.3,1089.8,1233z"/>
	</g>
	<g>
		<rect x="207.3" y="1071.1" class="st5" width="965.3" height="31.9"/>
	</g>
	<path class="st4" d="M378.4,889.9c-11.2-30.5-24.6-58.4-52.5-77.4c-4.5-2.5-7.8-8.9-11.2-14c-5.6-6.3-13.4-8.9-19-14
		c-9.9-8.3-19.5-17.4-29.7-24.7c3.8,5.4,6.5,24.5,7.7,28.7c3.6,12.6,11,23.8,16.1,35.8c12.2,28.4,35,50.9,61.9,59.6
		c7.7,2.5,16.3,4.4,21.2,11.5c2.7,3.9,3.6,8.2,3.7,12.5C378.9,901.9,381.1,895.9,378.4,889.9z"/>
	<path class="st3" d="M383.5,937.3c-0.5-11.9-1.4-39.1-1.9-51.1c0-1.2-0.1-2.5-0.1-3.7c-1-25.8,2.2-51-15.6-70.2
		c-7.2-7.8-15.8-13.7-24.4-19.5c-11.1-7.6-22.5-17.5-34.7-21.6c-13.9-4.7-28.2-8.5-42.2-12.8c0.6,0.2,1.1,0.7,1.6,1.4
		c10.2,7.4,19.8,16.5,29.7,24.7c5.6,5.1,13.4,7.6,19,14c3.3,5.1,6.7,11.4,11.2,14c27.9,19,41.3,47,52.5,77.4c2.6,6,0.4,12-1.7,18
		c0.1,4.7-0.3,24.9-0.9,29.8c-0.5,4,1.4,17.3,6.6,7.5C383.7,942.9,383.6,940,383.5,937.3z"/>
	<path class="st4" d="M315.4,877.8c-19-5.1-35.7-12.7-53.6-19c-20.9-6.2-41.8-3.2-60.8,6.9c17.8,1.8,33.3,15.1,47.6,27.5
		c15,13,31.6,26.3,50.5,25.8c10.7-0.3,20.8-5.1,31.3-7.3c7.1-1.5,16.7-1.6,24,2.3C343.2,898.4,334.2,882.6,315.4,877.8z"/>
	<path class="st3" d="M372.3,933.2c-4.2-12-5.9-24-12.8-34.4c-7.4-11.3-16.8-20.8-26.5-29.4c-18.5-16.3-39.3-31-62.6-34.5
		c-26.3-3.9-54.1,7.9-71.7,30.5c0.8,0,1.5,0.1,2.2,0.2c19-10,39.9-13,60.8-6.9c17.9,6.3,34.6,14,53.6,19c18.8,4.8,27.8,20.6,39,36.2
		c2.2,1.2,4.1,2.7,5.7,4.7c3.5,4.3,4.6,28.8,11.6,23.6C374.2,940.5,373.4,936.3,372.3,933.2z"/>
	<path class="st1" d="M489.5,818.5c0,0,11.7,35.9-1.1,57.5c-19.7-20.3-56.6-52.5-56.6-52.5L489.5,818.5z"/>
	<path class="st4" d="M446.3,794.5c-4.4,1.3-8.7,2.3-13.1,1.5c-6.1-1-11.9-5.4-18-5.2c-8.8,0.3-15.9,9.9-21.1,19.8
		c-9,17.6-15.1,40.3-10,61.8c1.6,6.9,4.1,13.5,4.7,20.8c0.6,6.8-0.6,13.6-2,20.2c-0.5,2.1-1,4.4-0.7,6.6c0.2,2.2,1.4,4.4,3,4.6
		c3.1,0.3,2.3-6.9,2.5-9.5c0.5-6.7,0.4-13.7,2.1-19.5C395,853.4,416.1,816.8,446.3,794.5z"/>
	<path class="st3" d="M462.3,790.9c-5.4,0-10.7,2-16,3.6c-30.1,22.4-51.3,58.9-52.7,101.1c1-3.2,2.5-6,5-8.2
		c4.6-4.1,10.3-5.2,15.8-5.9s11.2-1.3,16.1-4.6c7.8-5.3,12.4-16.3,17.9-25.5c10.3-17.2,25.2-29,41-32.8
		C485.8,802.6,474.3,791,462.3,790.9z"/>
	<path class="st3" d="M559.8,861.6c0.6-0.1,1.1-0.2,1.7-0.3c-21.6-6.9-44.1-11.2-66.2-10.1c-22.1,1.1-43.7,7.7-60.7,20.9
		c-8.5,6.6-15.7,14.8-22.5,23.3c-5.9,7.4-11.5,15-16.8,22.9c-2.5,3.7-4.5,8.2-7.4,11.6c-1.8,2-5.4,2.3-5.1,5.8
		c0.8,11.1,9.4-1.6,10.7-3.9c3.5-6.4,6-13.8,12.3-17.8c0.7-0.4,1.4-0.8,2.1-1.2C446.9,868.1,504.1,858,559.8,861.6z"/>
	<path class="st4" d="M408.1,912.8c4.5-2.1,9.8-2.5,14.9-2.7c20-1,40.4-1.5,58.8-8.3c27.7-10.2,49-34.2,78-40.2
		C504.1,858,446.9,868.1,408.1,912.8z"/>
	<path class="st1" d="M333.1,836.6c1.9,3.1-8.4,23.4,17.6,46.4s32.9,42.6,32.9,42.6l-3.6,26.6h9.6c0,0,0-22.4,0-26.6
		c0-4.2,10.9-30,29.3-46.1s32.9-31.5,32.8-41.9c0-10.4-34,8.7-36.9,7.3S333.1,836.6,333.1,836.6z"/>
	<path class="st4" d="M395.6,895.1c-5.7-21-6.9-44.1-0.4-64.4c-0.8,0.9-1.2,1.6-1,1.7c-11.5-4.5-19-8.7-31.1-5.8
		c-10.2,2.5-20.3,5.8-30,10c-1.2,0.5,22.8,28.9,25,31.2c11.9,12.6,25,24,37.5,35.9c0-0.9,0.1-1.9,0.2-2.8
		C395.9,898.9,396,896.9,395.6,895.1z"/>
	<path class="st3" d="M415.1,821.6c-1.4-0.1-2.7-0.1-4-0.1c-2.7,0-5.2,0.3-8.1,1.8c-0.7,0.4-5.7,4.9-7.9,7.4
		c-6.5,20.2-5.3,43.3,0.4,64.4c0.4,1.8,0.3,3.8,0.2,5.8c1.2-11.3,8.8-21.1,16.9-28.8c15.5-14.7,39.5-16.6,39.1-44.9
		C439.8,824.2,427.4,822.2,415.1,821.6z"/>
	<g>
		<polygon class="st5" points="376.4,930 304.9,930 309.9,968.2 376.4,968.2 455,968.2 460,930 		"/>
	</g>
	<g>
		<polygon class="st6" points="376.4,930 304.9,930 309.9,968.2 372.9,965.4 451.5,965.4 460,930 		"/>
	</g>
	<g>
		<polygon class="st6" points="376.4,930 304.9,930 305.5,934.3 459,934.3 460,930 		"/>
	</g>
	<g>
		<polygon class="st6" points="318.1,968.2 376.4,968.2 446.8,968.2 437.3,1071.1 376.4,1071.1 327.6,1071.1 		"/>
	</g>
	<g>
		<polygon class="st5" points="347.3,968.2 342.9,930 316.6,930 321,968.2 		"/>
	</g>
	<g>
		<polygon class="st5" points="337.1,1071.1 363.3,1071.1 352.2,968.2 326,968.2 		"/>
	</g>
	<g>
		<polygon class="st5" points="318.1,968.2 446.8,968.2 445.1,986.8 318.7,974.5 		"/>
	</g>
	<g>
		<polygon class="st5" points="326,968.2 352.2,968.2 353.3,977.8 326.8,975.3 		"/>
	</g>
	<path class="st3" d="M1030.5,878.8c-20.3-25.4-30.5-52-41.9-81.2c-3.8-7.6-15.2-11.4-21.6-19c-2.5-3.8-2.5-10.2-6.3-11.4
		c-5.6-4.7-11.2-9.3-16.9-13.6c-2.4-1-3.9-1.5-3.9-1.5s22,19.5,27.9,34.3s12.9,39.1,22.6,49.4c9.6,10.4,12.4,43.9,19,61.7
		s1.2,13.2,18.7,29c3.9,3.6,7.3,7,10.2,9.8C1039.5,916.6,1044,895.7,1030.5,878.8z"/>
	<path class="st4" d="M1026,827.5c-12.5-13.8-44.5-50.1-51.8-57.7c-5.6-5.8-22.7-13.1-30.5-16.3c5.7,4.4,11.3,8.9,16.9,13.6
		c3.8,1.3,3.8,7.6,6.3,11.4c6.3,7.6,17.8,11.4,21.6,19c11.4,29.2,21.6,55.8,41.9,81.2c13.5,16.9,9,37.9,7.9,57.5
		c9.9,9.6,14.2,11.2,16.9-18C1056.3,907.1,1038.5,841.2,1026,827.5z"/>
	<path class="st3" d="M1060.9,905.4c-2.5-8.9,2.5-17.8,5.1-26.7c7.6-15.2,12.7-31.7,21.6-45.7c14.6-21.3,35-33.7,54.5-48.5
		c-7.6,1.1-49.8,7.5-62.1,20.6c-13.5,14.4-28.8,36.4-30.5,56.1c-1.7,19.7-5.1,58.1,3.9,68.8c0.5,0.5,0.9,1.1,1.4,1.6
		c-0.1-0.3-0.2-0.6-0.2-0.9c0.1,0.3,0.2,0.6,0.2,0.9c2.9,3.5,5.8,7,8.3,10.1C1064.5,929.6,1062.8,917.2,1060.9,905.4z"/>
	<path class="st4" d="M1087.6,833.1c-8.9,14-14,30.5-21.6,45.7c-2.5,8.9-7.6,17.8-5.1,26.7c1.8,11.8,3.6,24.2,2.2,36.3
		c4.9,6,8.4,10.5,8.4,10.5s5.1-7.5,8.5-17.9s10.5-43,13.5-63.2c3.1-20.2,11-36.4,24.5-52.7s15.9-17.5,25.2-34c0,0-0.4,0.1-1.2,0.2
		C1122.6,799.4,1102.1,811.8,1087.6,833.1z"/>
	<path class="st1" d="M899.5,872c4.8-0.4,43,3.4,61.8,19.2s26,36,34.5,44.1c8.6,8.1,24,13.9,26.3,13.4c2.3-0.4,13.3-11.9,13.3-11.9
		s-7.9-16.5-23.1-32.5c-15.2-16-62.6-42-77.8-44C919.4,858.4,899.5,872,899.5,872z"/>
	<path class="st3" d="M1035.4,936.9c-14.5-35.1-26.2-44.1-48.2-54.2c-22-10.1-28.8-14.5-42.9-22.4c-14.1-7.8-26.7-8.2-52.9-4.3
		s-43.7,37.3-43.7,37.3s20.9-17.3,39.7-19.5s56.7-5.2,66.2-4.1c9.5,1.1,36.3,17.3,55.8,33.8C1028.9,920,1035.4,936.9,1035.4,936.9z"
		/>
	<path class="st1" d="M1033.3,850.4c0,0,16.7,19.5,19.5,32.5s0,61.3,0,61.3l1.2,24.7l-1.2-9.7c0,0-14-10.9-28.4-26.8
		c-14.4-16-6-57.5-20.9-61.9S1033.3,850.4,1033.3,850.4z"/>
	<path class="st1" d="M1071.5,943c0,0,19.5,2.1,35.5-18.4s18.2-40.1,31.3-48.7c13.1-8.6,49.1-14.7,49.1-14.7s-58.5-14.2-67.9-7.6
		c-9.4,6.6-24.6,27.2-29.1,37.7S1071.5,943,1071.5,943z"/>
	<path class="st3" d="M1210.7,868.6c-20.6-9.7-40.2-15.8-60.5-26.8c-14.6,3.2-30.1,9.8-40,18.4c-19.7,17-38.7,82.8-38.7,82.8
		s16.1-27.9,22-47.4s24.1-40.8,29.9-37.8c5.7,3,53.9,16.8,66.6,23.5c11.9,6.4,37.3,10.5,53,28
		C1237.9,891.2,1227.1,875.2,1210.7,868.6z"/>
	<path class="st4" d="M1184.9,843.3c-6.7-4.6-20.3-4.6-34.7-1.5c20.3,11,39.9,17.1,60.5,26.8c16.4,6.6,27.2,22.6,32.3,40.7
		c1,1.1,1.9,2.3,2.8,3.5C1246.7,879.2,1198.4,852.5,1184.9,843.3z"/>
	<g>
		<polygon class="st5" points="1039.8,930 968.3,930 973.3,968.2 1039.8,968.2 1118.4,968.2 1123.4,930 		"/>
	</g>
	<g>
		<polygon class="st6" points="1039.8,930 968.3,930 973.3,968.2 1036.3,965.4 1114.9,965.4 1123.4,930 		"/>
	</g>
	<g>
		<polygon class="st6" points="1039.8,930 968.3,930 968.8,934.3 1122.3,934.3 1123.4,930 		"/>
	</g>
	<g>
		<polygon class="st6" points="981.5,968.2 1039.8,968.2 1110.2,968.2 1100.7,1071.1 1039.8,1071.1 991,1071.1 		"/>
	</g>
	<g>
		<polygon class="st5" points="1010.6,968.2 1006.2,930 980,930 984.4,968.2 		"/>
	</g>
	<g>
		<polygon class="st5" points="1000.5,1071.1 1026.7,1071.1 1015.6,968.2 989.4,968.2 		"/>
	</g>
	<g>
		<polygon class="st5" points="981.5,968.2 1110.2,968.2 1108.5,986.8 982,974.5 		"/>
	</g>
	<g>
		<polygon class="st5" points="989.4,968.2 1015.6,968.2 1016.6,977.8 990.1,975.3 		"/>
	</g>
	<path class="st4" d="M997.5,847c0-0.1,0.1-0.1,0.1-0.2c-6.5-0.3-14.6-2.7-20.2,6.3c-7.5,12.1-11.3,23.2-15,52.5
		c-3.4,27,14.4,69.3,17.3,76c-0.6-12.8-5.7-24.8-9-36.8C961.9,907.9,977.2,877.5,997.5,847z"/>
	<path class="st3" d="M1003.5,845.8c-1.7,0.9-3.7,1.1-5.9,1c0,0.1-0.1,0.1-0.1,0.2c-20.3,30.5-35.5,60.9-26.7,97.7
		c3.3,12,8.4,24,9,36.8c0.3,0.6,0.4,0.9,0.4,0.9s10.5-58.2,12.2-71.5s7.9-32.8,20.6-44.9c12.7-12.1,20.2-15.6,20.2-15.6
		S1018.5,837.7,1003.5,845.8z"/>
	<path class="st11" d="M724.3,962.1c-7.6-13.7-30.7-113.5-43.7-134.7s-32.5-58.7-50.2-70.8c-17.8-12.1-82.1-25-100.7-8.4
		c-18.6,16.6-26.4,29.3-26.4,29.3s56-8.5,81.4,18.6s34.7,44,50.8,66s67.8,48.2,66.5,50.8c-1.3,2.5,17.3,53.9,17.3,53.9L724.3,962.1z
		"/>
	<path class="st2" d="M825.7,751.8c6.8-5.3,14-9.6,21.4-13c-14.5,1.3-29.2,5-38.1,13.6c-18.6,18.1-49.9,95.3-59.9,120.6
		s-19.6,83.6-23.6,97.1h7.4c0,0,10.2-44.5,12.1-47.8c0.2-0.3,0.5-0.6,1-0.9c7.7-24.4,9.8-50.3,20.1-73.2
		C782.6,812.8,795.3,774.7,825.7,751.8z"/>
	<path class="st3" d="M886.1,740.3c-7.5-1.3-23.1-2.9-38.9-1.5c-7.5,3.4-14.6,7.7-21.4,13c-30.5,22.8-43.2,60.9-59.6,96.5
		c-10.3,22.8-12.4,48.8-20.1,73.2c5-2.8,25.2-5.3,44.4-15.3c21.2-11,18.6-20.3,28.5-36.6s39.2-43.7,39.2-43.7s-11-51.6-11.8-54.2
		c-0.8-2.5,19.5,42.7,19.5,42.7l46.5,15.6C912.3,830,900.4,742.8,886.1,740.3z"/>
	<path class="st3" d="M716.6,886.4c-1.3-5.1-1.3-10.2-1.3-14c-2.5-26.7,5.1-54.6,0-81.2c-12.7-49.5-16.5-104.1-52-142.1
		c-0.4-0.4-0.7-0.8-1.1-1.3c-13.7-8.9-26.4-14.1-26.4-14.1s9.8,14.4,5.6,43.2s8.1,55.5,6.2,79.8c-1.9,24.3,30.2,108.5,46.7,126.9
		s19.1,33.3,19.1,33.3v9.2C719.1,913.2,718.9,900.3,716.6,886.4z"/>
	<path class="st2" d="M723.4,806.3c-6.8-38.9-21.8-121-39.3-140.5c-6.3-7-14.2-13.1-21.9-18.1c0.4,0.4,0.8,0.8,1.1,1.3
		c35.5,38.1,39.3,92.6,52,142.1c5.1,26.7-2.5,54.6,0,81.2c0,3.8,0,8.9,1.3,14c2.3,13.9,2.5,26.8-3.3,39.6v47l5-6.2
		C719.1,964.5,730.1,845.2,723.4,806.3z"/>
	<path class="st3" d="M752.1,809c11.4-55.8,17.8-120.6,71.1-144.7c0.8-0.3,1.6-0.6,2.5-0.9c-12.8,1.1-25.6,2.6-32,4.7
		c-15.2,5.1-65.1,23.3-72.8,113.6c-7.6,90.3-10.2,81.9,5.1,97.1c6.8,6.7,10.5,10.5,12.6,12.6c0.6-17,0.1-33.4,3.4-50.7
		C744.5,830.5,749.6,819.1,752.1,809z"/>
	<path class="st4" d="M823.2,664.3c-53.3,24.1-59.6,88.8-71.1,144.7c-2.5,10.2-7.6,21.6-10.2,31.7c-3.2,17.3-2.8,33.7-3.4,50.7
		c2.6,2.6,2.6,2.6,2.6,2.6L724,949.6l9.6-3.3c3.3-16.1,12.2-51.9,16.3-58.4c4-6.5,19.2-22.6,26.9-37.8c7.6-15.2,13.5-72.8,18.6-97.3
		s18.8-48.2,33.1-61.8c14.3-13.5,32.9-29.6,32.9-29.6s-17.8,0.6-35.7,2.1C824.8,663.7,824,664,823.2,664.3z"/>
	<path class="st1" d="M714.9,809.9c0,0,27.2,26.6,35.7,43.7c8.5,17,8.1,53.4,6.2,71.6c-1.9,18.2,0,45,0,45l-4.5,2.9
		c0,0-4.2-29.1-8.5-50.7c-16.1-10.3-25.2-3.5-41.8-16.2s-30.3-53.3-41.6-61.7C649,835.9,679.2,791.5,714.9,809.9z"/>
	<path class="st3" d="M655.7,803.9c2-4.4,4.6-8.2,7.6-11.6c-10.4,0.4-19.1,0.8-26,0c-7.1-0.8-23.2,11-30,27.9
		c-6.2,15.5,9.1,83.3,11.7,94.5c5.3-22.5,7.7-46.9,11.2-70.2C632.8,828,649.3,817.8,655.7,803.9z"/>
	<path class="st4" d="M664.4,792.2c-0.4,0-0.7,0-1.1,0c-3,3.4-5.6,7.2-7.6,11.6c-6.3,14-22.8,24.1-25.4,40.6
		c-3.5,23.3-5.9,47.7-11.2,70.2c0.2,1,0.4,1.6,0.4,1.6s35.2-42.9,52.6-56.8c17.4-13.9,8.2-53.1,42.8-49.6
		C709.2,804.9,697.7,790.8,664.4,792.2z"/>
	<g>
		<polygon class="st5" points="725,930 653.5,930 658.5,968.2 725,968.2 803.6,968.2 808.6,930 		"/>
	</g>
	<g>
		<polygon class="st6" points="725,930 653.5,930 658.5,968.2 721.5,965.4 800.1,965.4 808.6,930 		"/>
	</g>
	<g>
		<polygon class="st6" points="725,930 653.5,930 654.1,934.3 807.6,934.3 808.6,930 		"/>
	</g>
	<g>
		<polygon class="st6" points="666.7,968.2 725,968.2 795.4,968.2 785.9,1071.1 725,1071.1 676.2,1071.1 		"/>
	</g>
	<g>
		<polygon class="st5" points="695.8,968.2 691.5,930 665.2,930 669.6,968.2 		"/>
	</g>
	<g>
		<polygon class="st5" points="685.7,1071.1 711.9,1071.1 700.8,968.2 674.6,968.2 		"/>
	</g>
	<g>
		<polygon class="st5" points="666.7,968.2 795.4,968.2 793.7,986.8 667.3,974.5 		"/>
	</g>
	<g>
		<polygon class="st5" points="674.6,968.2 700.8,968.2 701.9,977.8 675.4,975.3 		"/>
	</g>
</g>
</svg>
